<?xml version="1.0" encoding="UTF-8"?>
<svg width="160px" height="160px" viewBox="0 0 160 160" version="1.1" xmlns="http://www.w3.org/2000/svg" xmlns:xlink="http://www.w3.org/1999/xlink">
    <title>times-light</title>
    <g id="Page-1" stroke="none" stroke-width="1" fill="none" fill-rule="evenodd">
        <g id="Artboard" fill="#2EC4B6" fill-rule="nonzero">
            <g id="times-light">
                <path d="M96.97,80 L148.25,28.72 L158.825,18.145 C160.385,16.585 160.385,14.05 158.825,12.49 L147.51,1.175 C145.95,-0.385 143.415,-0.385 141.855,1.175 L80,63.03 L18.145,1.17 C16.585,-0.39 14.05,-0.39 12.49,1.17 L1.17,12.485 C-0.39,14.045 -0.39,16.58 1.17,18.14 L63.03,80 L1.17,141.855 C-0.39,143.415 -0.39,145.95 1.17,147.51 L12.485,158.825 C14.045,160.385 16.58,160.385 18.14,158.825 L80,96.97 L131.28,148.25 L141.855,158.825 C143.415,160.385 145.95,160.385 147.51,158.825 L158.825,147.51 C160.385,145.95 160.385,143.415 158.825,141.855 L96.97,80 Z" id="Path"></path>
            </g>
        </g>
    </g>
</svg>